<svg xmlns="http://www.w3.org/2000/svg" width="115" height="115" viewBox="0 0 115 115">
  <g id="Group_571" data-name="Group 571" transform="translate(0 0.001)">
    <rect id="Rectangle_459" data-name="Rectangle 459" width="115" height="115" rx="6" transform="translate(0 -0.001)" fill="none"/>
    <g id="Group_575" data-name="Group 575" transform="translate(7.188 7.188)">
      <g id="Group_574" data-name="Group 574">
        <g id="Group_573" data-name="Group 573">
          <path id="Path_202" data-name="Path 202" d="M98.948,104h-36.9a1.677,1.677,0,0,0-1.677,1.677v40.25H51.99V144.25h1.677a1.677,1.677,0,0,0,0-3.354H36.9a1.677,1.677,0,0,0,0,3.354h1.677v1.677H21.8V144.25h1.677a1.677,1.677,0,0,0,0-3.354H6.708a1.677,1.677,0,0,0,0,3.354H8.385v1.677H1.677A1.677,1.677,0,0,0,0,147.6v33.542a1.677,1.677,0,0,0,1.677,1.677H98.948a1.677,1.677,0,0,0,1.677-1.677V105.677A1.677,1.677,0,0,0,98.948,104ZM41.927,144.25h6.708v1.677H41.927Zm-30.188,0h6.708v1.677H11.74Zm15.094,35.219H3.354V159.344H26.833Zm0-23.479H3.354v-6.708H26.833Zm33.542,23.479H30.187V149.281H60.375Zm36.9,0H63.729V134.188H97.271Zm0-48.635H63.729V107.354H97.271Z" transform="translate(0 -82.198)" fill="#0e1e8e"/>
          <path id="Path_203" data-name="Path 203" d="M161.677,359.479H181.8a1.677,1.677,0,0,0,1.677-1.677V337.677A1.677,1.677,0,0,0,181.8,336H161.677A1.677,1.677,0,0,0,160,337.677V357.8A1.677,1.677,0,0,0,161.677,359.479Zm1.677-20.125h16.771v16.771H163.354Z" transform="translate(-126.458 -265.562)" fill="#0e1e8e"/>
          <path id="Path_204" data-name="Path 204" d="M313.677,186.063a1.677,1.677,0,0,0,1.677-1.677v-6.708a1.677,1.677,0,0,0-3.354,0v6.708A1.677,1.677,0,0,0,313.677,186.063Z" transform="translate(-246.594 -139.104)" fill="#0e1e8e"/>
          <path id="Path_205" data-name="Path 205" d="M313.677,266.063a1.677,1.677,0,0,0,1.677-1.677v-6.708a1.677,1.677,0,0,0-3.354,0v6.708A1.677,1.677,0,0,0,313.677,266.063Z" transform="translate(-246.594 -202.333)" fill="#0e1e8e"/>
          <path id="Path_206" data-name="Path 206" d="M16.59,29.8a1.678,1.678,0,0,0,1.078.39H67.98a1.677,1.677,0,0,0,1.29-2.752L52.5,7.31a1.678,1.678,0,0,0-1.29-.6H49.532V1.677A1.677,1.677,0,0,0,47.855,0H37.793a1.677,1.677,0,0,0-1.677,1.677V6.708H34.439a1.678,1.678,0,0,0-1.29.6L16.378,27.435A1.677,1.677,0,0,0,16.59,29.8ZM39.47,3.354h6.708V6.708H39.47Zm-4.245,6.708h15.2L64.4,26.833H21.248Z" transform="translate(-12.636)" fill="#0e1e8e"/>
        </g>
      </g>
    </g>
  </g>
</svg>
