<svg xmlns="http://www.w3.org/2000/svg" width="115" height="115" viewBox="0 0 115 115">
  <g id="Group_564" data-name="Group 564" transform="translate(0 0.001)">
    <rect id="Rectangle_459" data-name="Rectangle 459" width="115" height="115" rx="6" transform="translate(0 -0.001)" fill="none"/>
    <g id="Group_562" data-name="Group 562" transform="translate(25.156 3.594)">
      <g id="Group_563" data-name="Group 563" transform="translate(0 0)">
        <g id="Group_562-2" data-name="Group 562">
          <path id="Path_178" data-name="Path 178" d="M151.764,50.367h-1.8v-3.6h1.8a5.4,5.4,0,0,0,5.4-5.4V10.462A5.384,5.384,0,0,0,155.361,0H101.4a5.384,5.384,0,0,0-1.8,10.462V41.373a5.4,5.4,0,0,0,5.4,5.4h1.8v3.6h-1.8A9,9,0,0,0,96,59.361a1.8,1.8,0,0,0,1.8,1.8A30.4,30.4,0,0,0,115.787,89v17.13a1.8,1.8,0,0,0,1.8,1.8h21.586a1.8,1.8,0,0,0,1.8-1.8V89a30.409,30.409,0,0,0,17.988-27.84,1.8,1.8,0,0,0,1.8-1.8A9,9,0,0,0,151.764,50.367ZM99.6,5.4a1.8,1.8,0,0,1,1.8-1.8h53.965a1.8,1.8,0,0,1,0,3.6H101.4A1.8,1.8,0,0,1,99.6,5.4Zm5.4,37.775a1.8,1.8,0,0,1-1.8-1.8V10.793h50.367v30.58a1.8,1.8,0,0,1-1.8,1.8Zm41.373,3.6v3.6H110.391v-3.6Zm-26.982,57.562V90.395l.167.045c.18.054.36.1.54.146q.988.281,1.995.493c.322.068.646.124.97.18.556.1,1.115.18,1.678.243.342.041.68.085,1.025.113q1.1.092,2.2.1c.137,0,.27.02.407.02s.272-.018.408-.02q1.1-.012,2.2-.1c.345-.029.687-.074,1.031-.113.558-.067,1.112-.146,1.664-.241q.494-.086.986-.18c.655-.135,1.3-.3,1.941-.478.2-.056.4-.1.6-.16.052-.016.108-.027.16-.043l.009,13.934Zm19.1-18.159a27.074,27.074,0,0,1-15.27,1.471,26.082,26.082,0,0,1-4.959-1.477A26.848,26.848,0,0,1,101.4,61.16h53.965A26.852,26.852,0,0,1,138.488,86.173ZM99.905,57.562a5.407,5.407,0,0,1,5.089-3.6h46.769a5.407,5.407,0,0,1,5.089,3.6Z" transform="translate(-96 0)" fill="#0e1e8e"/>
          <path id="Path_179" data-name="Path 179" d="M152.107,59.593H146.38a5.4,5.4,0,1,0,0,3.6h5.728a1.8,1.8,0,1,0,0-3.6Zm-10.793,3.6a1.8,1.8,0,1,1,1.8-1.8A1.8,1.8,0,0,1,141.314,63.19Z" transform="translate(-126.924 -43.403)" fill="#0e1e8e"/>
        </g>
      </g>
    </g>
  </g>
</svg>
