<svg xmlns="http://www.w3.org/2000/svg" width="115" height="115.001" viewBox="0 0 115 115.001">
  <g id="Group_572" data-name="Group 572" transform="translate(0 0.001)">
    <rect id="Rectangle_459" data-name="Rectangle 459" width="115" height="115" rx="6" transform="translate(0 -0.001)" fill="none"/>
    <path id="Path_201" data-name="Path 201" d="M1.171,67.866A19.179,19.179,0,0,0,18.943,80.489l-3.6,32.383A1.917,1.917,0,0,0,17.25,115h23a1.917,1.917,0,0,0,1.906-2.128l-3.6-32.383A19.183,19.183,0,0,0,57.5,61.333V59.417A1.917,1.917,0,0,0,55.583,57.5H41.712A31.581,31.581,0,0,0,55.583,30.667C55.583,13.757,43.547,0,28.75,0S1.917,13.757,1.917,30.667A31.581,31.581,0,0,0,15.788,57.5H1.917A1.917,1.917,0,0,0,0,59.417v1.916a19.03,19.03,0,0,0,1.133,6.428C1.146,67.8,1.156,67.831,1.171,67.866Zm18.22,43.3L22.8,80.5H34.7l3.409,30.667ZM5.75,30.667c0-14.8,10.317-26.834,23-26.834s23,12.037,23,26.834S41.433,57.5,28.75,57.5a19.817,19.817,0,0,1-3.833-.4v-9.18A1.917,1.917,0,0,1,26.833,46H28.75a1.919,1.919,0,0,1,1.917,1.916,1.917,1.917,0,1,0,3.833,0,5.757,5.757,0,0,0-5.75-5.75H26.833a5.757,5.757,0,0,0-5.75,5.75v8.018C12.165,52.239,5.75,42.323,5.75,30.667ZM53.667,61.333A15.351,15.351,0,0,1,38.334,76.666H19.166A15.327,15.327,0,0,1,5.908,69h7.508a1.917,1.917,0,0,0,0-3.833H4.338a15.282,15.282,0,0,1-.5-3.833Z" transform="translate(28.75)" fill="#0e1e8e"/>
  </g>
</svg>
