<svg xmlns="http://www.w3.org/2000/svg" width="115" height="115" viewBox="0 0 115 115">
  <g id="Group_561" data-name="Group 561" transform="translate(0 0.001)">
    <rect id="Rectangle_459" data-name="Rectangle 459" width="115" height="115" rx="6" transform="translate(0 -0.001)" fill="none"/>
    <g id="Group_559" data-name="Group 559" transform="translate(0 12.579)">
      <g id="Group_560" data-name="Group 560">
        <g id="Group_559-2" data-name="Group 559">
          <path id="Path_170" data-name="Path 170" d="M340.8,382.1a3.03,3.03,0,0,1-3.026-3.026,1.816,1.816,0,0,0-3.632,0,6.666,6.666,0,0,0,6.658,6.658,1.816,1.816,0,0,0,0-3.632Z" transform="translate(-259.094 -317.289)" fill="#0e1e8e"/>
          <path id="Path_171" data-name="Path 171" d="M449.8,291.031a7.869,7.869,0,1,0,7.869,7.869A7.877,7.877,0,0,0,449.8,291.031Zm0,12.105a4.237,4.237,0,1,1,4.237-4.237A4.242,4.242,0,0,1,449.8,303.136Z" transform="translate(-342.673 -250.427)" fill="#0e1e8e"/>
          <path id="Path_173" data-name="Path 173" d="M403.969,281.672a1.815,1.815,0,0,0,2.062-1.53,48.321,48.321,0,0,0,.517-7.049,47.816,47.816,0,0,0-1.815-13.082,1.816,1.816,0,1,0-3.493.993,44.511,44.511,0,0,1,1.2,18.606A1.817,1.817,0,0,0,403.969,281.672Z" transform="translate(-311.064 -225.35)" fill="#0e1e8e"/>
          <path id="Path_174" data-name="Path 174" d="M416.258,436a3.03,3.03,0,0,1-3.026-3.026,1.816,1.816,0,0,0-3.631,0,6.665,6.665,0,0,0,6.658,6.658,1.816,1.816,0,1,0,0-3.631Z" transform="translate(-317.6 -359.078)" fill="#0e1e8e"/>
          <path id="Path_175" data-name="Path 175" d="M136.222,214.871a1.815,1.815,0,0,0,1.816-1.816,31.8,31.8,0,0,0-62.528-8.164,1.816,1.816,0,0,0,3.51.93,28.166,28.166,0,0,1,55.386,7.234A1.816,1.816,0,0,0,136.222,214.871Z" transform="translate(-58.503 -165.313)" fill="#0e1e8e"/>
          <path id="Path_176" data-name="Path 176" d="M74.642,316.541a1.816,1.816,0,0,0-3.631,0A31.46,31.46,0,0,0,77.892,336.3,31.951,31.951,0,0,0,95.18,347.413a1.816,1.816,0,1,0,.868-3.526A28.092,28.092,0,0,1,74.642,316.541Z" transform="translate(-55.061 -268.799)" fill="#0e1e8e"/>
          <path id="Path_177" data-name="Path 177" d="M113.184,196.857h-3.026v-7.868a13.93,13.93,0,0,0-17.024-13.573,13.922,13.922,0,0,0-27.748.763A13.934,13.934,0,0,0,46,188.988v7.868H26.862a44.113,44.113,0,1,1,50.625-71.435c-.009.205-.014.413-.014.62a13.918,13.918,0,1,0,.827-4.73A47.746,47.746,0,1,0,20,196.857H1.816a1.816,1.816,0,0,0,0,3.631H113.184a1.816,1.816,0,0,0,0-3.632Zm-21.79-81.1a10.289,10.289,0,1,1-10.29,10.289A10.3,10.3,0,0,1,91.395,115.752Zm15.132,81.1H49.632v-7.868a10.3,10.3,0,0,1,10.29-10.29,10.2,10.2,0,0,1,6.172,2.057A1.815,1.815,0,0,0,69,179.3v-2.421a10.29,10.29,0,1,1,20.579,0v1.01a1.816,1.816,0,0,0,2.543,1.664,10.291,10.291,0,0,1,14.4,9.431h0v7.868Z" transform="translate(0 -110.253)" fill="#0e1e8e"/>
        </g>
      </g>
    </g>
  </g>
</svg>
