<svg xmlns="http://www.w3.org/2000/svg" width="115" height="115" viewBox="0 0 115 115">
  <g id="Group_577" data-name="Group 577" transform="translate(0 0.001)">
    <rect id="Rectangle_459" data-name="Rectangle 459" width="115" height="115" rx="6" transform="translate(0 -0.001)" fill="none"/>
    <g id="Group_576" data-name="Group 576" transform="translate(3.595 10.782)">
      <ellipse id="Ellipse_9" data-name="Ellipse 9" cx="2.695" cy="1.797" rx="2.695" ry="1.797" transform="translate(57.5 13.508)" fill="#0e1e8e"/>
      <ellipse id="Ellipse_10" data-name="Ellipse 10" cx="2.695" cy="1.797" rx="2.695" ry="1.797" transform="translate(44.922 13.508)" fill="#0e1e8e"/>
      <path id="Path_207" data-name="Path 207" d="M276.6,279.787a2.1,2.1,0,1,0-2.525-3.366,13.938,13.938,0,0,0,0,22.3,9.73,9.73,0,0,1,0,15.569,2.1,2.1,0,0,0,2.525,3.366,13.938,13.938,0,0,0,0-22.3,9.731,9.731,0,0,1,0-15.569Z" transform="translate(-212.01 -225.506)" fill="#0e1e8e"/>
      <path id="Path_208" data-name="Path 208" d="M366.6,279.787a2.1,2.1,0,1,0-2.525-3.366,13.938,13.938,0,0,0,0,22.3,9.73,9.73,0,0,1,0,15.569,2.1,2.1,0,0,0,2.525,3.366,13.938,13.938,0,0,0,0-22.3,9.731,9.731,0,0,1,0-15.569Z" transform="translate(-283.075 -225.506)" fill="#0e1e8e"/>
      <path id="Path_209" data-name="Path 209" d="M186.6,279.787a2.1,2.1,0,1,0-2.525-3.366,13.938,13.938,0,0,0,0,22.3,9.731,9.731,0,0,1,0,15.569,2.1,2.1,0,0,0,2.525,3.366,13.938,13.938,0,0,0,0-22.3,9.73,9.73,0,0,1,0-15.569Z" transform="translate(-140.945 -225.506)" fill="#0e1e8e"/>
      <path id="Path_210" data-name="Path 210" d="M96.6,279.787a2.1,2.1,0,1,0-2.525-3.366,13.938,13.938,0,0,0,0,22.3,9.731,9.731,0,0,1,0,15.569,2.1,2.1,0,0,0,2.525,3.366,13.938,13.938,0,0,0,0-22.3,9.73,9.73,0,0,1,0-15.569Z" transform="translate(-69.881 -225.506)" fill="#0e1e8e"/>
      <circle id="Ellipse_11" data-name="Ellipse 11" cx="1.797" cy="1.797" r="1.797" transform="translate(52.109 38.664)" fill="#0e1e8e"/>
      <path id="Path_211" data-name="Path 211" d="M99.3,36H8.416A8.425,8.425,0,0,0,0,44.416V75.974a2.1,2.1,0,0,0,2.1,2.1H44.392a2.1,2.1,0,0,0,0-4.208H16.831V65.455H90.888V73.87H63.327a2.1,2.1,0,1,0,0,4.208h42.288a2.1,2.1,0,0,0,2.1-2.1V44.416A8.425,8.425,0,0,0,99.3,36Zm4.208,37.87H95.1V63.351a2.1,2.1,0,0,0-2.1-2.1H14.727a2.1,2.1,0,0,0-2.1,2.1V73.87H4.208V44.416a4.213,4.213,0,0,1,4.208-4.208H99.3a4.213,4.213,0,0,1,4.208,4.208Z" transform="translate(0 -36)" fill="#0e1e8e"/>
    </g>
  </g>
</svg>
