<svg xmlns="http://www.w3.org/2000/svg" width="115.25" height="115" viewBox="0 0 115.25 115">
  <g id="Group_565" data-name="Group 565" transform="translate(0.125 0.001)">
    <rect id="Rectangle_459" data-name="Rectangle 459" width="115" height="115" rx="6" transform="translate(0 -0.001)" fill="none"/>
    <path id="Path_180" data-name="Path 180" d="M122.469,131.5a8.519,8.519,0,0,0-4.885,1.526v-3.443A9.594,9.594,0,0,0,108,120H39a9.594,9.594,0,0,0-9.583,9.583v3.443A8.543,8.543,0,0,0,16,140.031v.043a8.518,8.518,0,0,0,.388,2.545l7.6,24.323a9.539,9.539,0,0,0,8.916,6.72l-1.546,9.273a1.917,1.917,0,0,0,1.576,2.206,1.9,1.9,0,0,0,.315.026h3.833a1.916,1.916,0,0,0,1.595-.853l7.1-10.647h55.449l7.1,10.647a1.916,1.916,0,0,0,1.595.853h3.833a1.916,1.916,0,0,0,1.891-2.232l-1.546-9.273a9.539,9.539,0,0,0,8.916-6.72l7.6-24.323a8.518,8.518,0,0,0,.388-2.545v-.043A8.541,8.541,0,0,0,122.469,131.5ZM39,123.833h69a5.756,5.756,0,0,1,5.75,5.75v9.774l-3.307,10.747a7.662,7.662,0,0,0-6.276-3.272H79.25a7.649,7.649,0,0,0-5.75,2.6,7.649,7.649,0,0,0-5.75-2.6H42.833a7.662,7.662,0,0,0-6.276,3.272L33.25,139.358v-9.774A5.756,5.756,0,0,1,39,123.833Zm32.583,32.583H39V154.5a3.838,3.838,0,0,1,3.833-3.833H67.75a3.838,3.838,0,0,1,3.833,3.833Zm36.417,0H75.417V154.5a3.838,3.838,0,0,1,3.833-3.833h24.917A3.838,3.838,0,0,1,108,154.5ZM36.058,181.333h-.545l1.278-7.667h4.378Zm74.885,0-5.111-7.667h4.378l1.278,7.667Zm16.224-41.259a4.694,4.694,0,0,1-.214,1.4l-7.6,24.323a5.725,5.725,0,0,1-5.488,4.035H33.136a5.725,5.725,0,0,1-5.488-4.035l-7.6-24.323a4.694,4.694,0,0,1-.214-1.4v-.043a4.7,4.7,0,0,1,9.188-1.382l6.23,20.247a1.917,1.917,0,0,0,1.832,1.353h72.833a1.917,1.917,0,0,0,1.832-1.353l6.23-20.247a4.7,4.7,0,0,1,9.188,1.382Z" transform="translate(-16 -91.131)" fill="#0e1e8e" stroke="#fff" stroke-width="0.25"/>
  </g>
</svg>
