<svg xmlns="http://www.w3.org/2000/svg" width="115" height="115" viewBox="0 0 115 115">
  <g id="Group_570" data-name="Group 570" transform="translate(0 0.001)">
    <rect id="Rectangle_459" data-name="Rectangle 459" width="115" height="115" rx="6" transform="translate(0 -0.001)" fill="none"/>
    <g id="Group_569" data-name="Group 569" transform="translate(7.188 7.188)">
      <g id="Group_568" data-name="Group 568">
        <path id="Path_193" data-name="Path 193" d="M98.259,242.734H96.391V240.49A3.6,3.6,0,0,0,92.8,236.9H56.642a3.6,3.6,0,0,0-3.593,3.593v2.244H27.623a1.471,1.471,0,0,0,0,2.942H98.012v3.2H3.484v-3.2H21.74a1.471,1.471,0,0,0,0-2.942H3.237a2.7,2.7,0,0,0-2.695,2.695v41.59a3.95,3.95,0,0,0,3.946,3.946h92.52a3.951,3.951,0,0,0,3.946-3.946V245.428a2.7,2.7,0,0,0-2.695-2.695ZM55.991,240.49a.652.652,0,0,1,.651-.651H92.8a.652.652,0,0,1,.651.651v2.244H55.991Zm-4.857,11.324v36.208H29.244V251.814Zm-47.65,35.2v-35.2H26.3v36.208H4.488A1,1,0,0,1,3.484,287.018Zm93.524,1H54.075V251.814H98.012v35.2A1,1,0,0,1,97.008,288.022Z" transform="translate(-0.542 -190.339)" fill="#0e1e8e"/>
        <path id="Path_194" data-name="Path 194" d="M3.237,34.884H43.15a2.7,2.7,0,0,0,2.695-2.695V5.357A2.7,2.7,0,0,0,43.15,2.662H3.237A2.7,2.7,0,0,0,.542,5.357V32.19a2.7,2.7,0,0,0,2.695,2.695ZM42.9,31.943H24.664V5.6H42.9ZM3.484,5.6H21.722V31.943H3.484Z" transform="translate(-0.542 -2.139)" fill="#0e1e8e"/>
        <path id="Path_195" data-name="Path 195" d="M259.425,32.746h21.6a1.471,1.471,0,1,0,0-2.942h-21.35V26.019h39.616V29.8H286.905a1.471,1.471,0,1,0,0,2.942h12.629a2.7,2.7,0,0,0,2.695-2.695V25.772a2.7,2.7,0,0,0-2.545-2.687L292.4,9.156l-.32-7.746A1.471,1.471,0,0,0,290.611,0H268.62a1.471,1.471,0,0,0-1.471,1.5l.128,7.7-7.259,13.881h-.594a2.7,2.7,0,0,0-2.695,2.695v4.279a2.7,2.7,0,0,0,2.695,2.695ZM289.2,2.942l.212,5.133H270.2l-.086-5.133Zm-19.554,8.075h20.409l6.306,12.06H263.339Z" transform="translate(-206.381)" fill="#0e1e8e"/>
        <path id="Path_196" data-name="Path 196" d="M228.795,338.747a1.471,1.471,0,0,0,1.471-1.471V333.84a1.471,1.471,0,0,0-2.942,0v3.436A1.471,1.471,0,0,0,228.795,338.747Z" transform="translate(-182.754 -267.047)" fill="#0e1e8e"/>
        <path id="Path_197" data-name="Path 197" d="M467.52,332.37a1.471,1.471,0,0,0-1.471,1.471v3.436a1.471,1.471,0,0,0,2.942,0v-3.436A1.471,1.471,0,0,0,467.52,332.37Z" transform="translate(-374.561 -267.048)" fill="#0e1e8e"/>
        <path id="Path_198" data-name="Path 198" d="M103.566,332.37a1.471,1.471,0,0,0-1.471,1.471v3.436a1.471,1.471,0,1,0,2.942,0v-3.436A1.471,1.471,0,0,0,103.566,332.37Z" transform="translate(-82.136 -267.048)" fill="#0e1e8e"/>
        <path id="Path_199" data-name="Path 199" d="M80.292,99.937a1.471,1.471,0,0,0-1.471,1.471v3.436a1.471,1.471,0,1,0,2.942,0v-3.436A1.471,1.471,0,0,0,80.292,99.937Z" transform="translate(-63.437 -80.296)" fill="#0e1e8e"/>
        <path id="Path_200" data-name="Path 200" d="M138.454,106.316a1.471,1.471,0,0,0,1.471-1.471v-3.436a1.471,1.471,0,1,0-2.942,0v3.436A1.471,1.471,0,0,0,138.454,106.316Z" transform="translate(-110.168 -80.297)" fill="#0e1e8e"/>
      </g>
    </g>
  </g>
</svg>
