<svg xmlns="http://www.w3.org/2000/svg" width="115" height="115" viewBox="0 0 115 115">
  <g id="Group_567" data-name="Group 567" transform="translate(0 0.001)">
    <rect id="Rectangle_459" data-name="Rectangle 459" width="115" height="115" rx="6" transform="translate(0 -0.001)" fill="none"/>
    <g id="Group_566" data-name="Group 566" transform="translate(5.331 7.189)">
      <path id="Path_181" data-name="Path 181" d="M189.53,195.5a8.829,8.829,0,0,1-5.091-1.612L149.4,169.3a8.9,8.9,0,0,1-2.172-12.383l.151-.207a1.55,1.55,0,0,1,2.159-.378h0l47.056,33.013a1.55,1.55,0,0,1,.38,2.155l-.149.207a8.9,8.9,0,0,1-7.292,3.792Zm-40.39-35.664a5.8,5.8,0,0,0,2.037,6.93l35.04,24.589a5.806,5.806,0,0,0,7.209-.442Z" transform="translate(-131.382 -135.161)" fill="#0e1e8e"/>
      <path id="Path_182" data-name="Path 182" d="M203.834,164.461a1.538,1.538,0,0,1-.888-.281l-39.814-27.926a1.55,1.55,0,0,1-.378-2.159h0l2.182-3.108A25.867,25.867,0,0,1,207.287,160.7l-2.182,3.112a1.549,1.549,0,0,1-1.271.649ZM166.18,134.607l37.278,26.155,1.293-1.843a22.769,22.769,0,1,0-37.278-26.155Z" transform="translate(-143.137 -110.014)" fill="#0e1e8e"/>
      <path id="Path_183" data-name="Path 183" d="M159.364,231.388a1.55,1.55,0,0,1-1.05-2.686l2.273-2.1a1.552,1.552,0,0,1,2.1,2.273l-2.273,2.1A1.549,1.549,0,0,1,159.364,231.388Z" transform="translate(-139.891 -184.122)" fill="#0e1e8e"/>
      <path id="Path_184" data-name="Path 184" d="M124.9,256.622a1.55,1.55,0,0,1-1.05-2.686l5.215-4.806a1.55,1.55,0,0,1,2.216,2.167c-.037.037-.075.073-.115.106l-5.215,4.808A1.553,1.553,0,0,1,124.9,256.622Z" transform="translate(-115.856 -199.743)" fill="#0e1e8e"/>
      <path id="Path_185" data-name="Path 185" d="M100.136,285.952a1.55,1.55,0,0,1-1.05-2.686l2.273-2.1a1.55,1.55,0,0,1,2.1,2.267l-2.273,2.1A1.539,1.539,0,0,1,100.136,285.952Z" transform="translate(-98.59 -222.168)" fill="#0e1e8e"/>
      <path id="Path_186" data-name="Path 186" d="M195.895,256.133a1.552,1.552,0,0,1-1.269-2.44l1.781-2.538a1.55,1.55,0,0,1,2.537,1.781l-1.781,2.531a1.546,1.546,0,0,1-1.269.665Z" transform="translate(-165.363 -201.021)" fill="#0e1e8e"/>
      <path id="Path_187" data-name="Path 187" d="M166.865,288.982a1.55,1.55,0,0,1-1.267-2.438l4.393-6.263a1.55,1.55,0,0,1,2.538,1.779l-4.4,6.263a1.545,1.545,0,0,1-1.269.659Z" transform="translate(-145.121 -221.346)" fill="#0e1e8e"/>
      <path id="Path_188" data-name="Path 188" d="M146.463,326.532a1.552,1.552,0,0,1-1.269-2.44l1.781-2.537a1.55,1.55,0,1,1,2.569,1.734l-.031.044-1.779,2.538A1.551,1.551,0,0,1,146.463,326.532Z" transform="translate(-130.893 -250.095)" fill="#0e1e8e"/>
      <path id="Path_189" data-name="Path 189" d="M232.7,281a1.551,1.551,0,0,1-1.428-2.149l1.2-2.86a1.55,1.55,0,0,1,2.858,1.2l-1.2,2.854A1.549,1.549,0,0,1,232.7,281Z" transform="translate(-191.028 -218.154)" fill="#0e1e8e"/>
      <path id="Path_190" data-name="Path 190" d="M214.559,315.661a1.552,1.552,0,0,1-1.428-2.151l2.746-6.54a1.55,1.55,0,0,1,2.858,1.2h0l-2.746,6.54a1.552,1.552,0,0,1-1.43.95Z" transform="translate(-178.378 -239.74)" fill="#0e1e8e"/>
      <path id="Path_191" data-name="Path 191" d="M201.529,355.2a1.55,1.55,0,0,1-1.426-2.151l1.2-2.855a1.55,1.55,0,1,1,2.858,1.2l-1.2,2.858A1.548,1.548,0,0,1,201.529,355.2Z" transform="translate(-169.293 -269.878)" fill="#0e1e8e"/>
      <path id="Path_192" data-name="Path 192" d="M315.584,189.321h-6.819a1.55,1.55,0,0,1-1.55-1.55V96.855l-14.923.118a.459.459,0,0,0-.329.149l-8.542,8.908a1.548,1.548,0,0,1-2.015.19l-5.416-3.845a1.548,1.548,0,0,1-.369-2.158,1.528,1.528,0,0,1,.127-.157l9.026-9.79a10.456,10.456,0,0,1,7.511-3.23h15.041a9.819,9.819,0,0,1,9.807,9.815v90.917a1.55,1.55,0,0,1-1.55,1.55Zm-5.277-3.1h3.719V96.855a6.718,6.718,0,0,0-6.709-6.709H292.284a7.318,7.318,0,0,0-5.252,2.254l-7.819,8.472,2.893,2.05,7.608-7.93a3.558,3.558,0,0,1,2.575-1.114h15.041a2.986,2.986,0,0,1,2.978,2.978Z" transform="translate(-221.84 -87.04)" fill="#0e1e8e"/>
    </g>
  </g>
</svg>
